# xmcd
#
# Track frame offsets:
# 150
# 17422
# 36269
# 59142
# 75609
# 95314
# 111628
# 132722
# 153632
# 170537
#
# Disc length: 2569 seconds
#
#
# Revision: 0
# Processed by: cddbd v1.5PL3 Copyright (c) Steve Scherf et al.
# Submitted via: FreeRIP 2.53 
#
DISCID=8a0a070a
DTITLE=Lynne, Shelby - Love, Shelby
DYEAR=1900
DGENRE=Country
TTITLE0=Trust Me
TTITLE1=Bend
TTITLE2=Jesus On A Greyhound
TTITLE3=Wall In Your Heart
TTITLE4=Ain't It The Truth
TTITLE5=I Can't Wait
TTITLE6=Tarpoleon Napoleon
TTITLE7=Killin' Kind
TTITLE8=All Of A Sudden You Disappreared
TTITLE9=Mother
EXTD=
EXTT0=
EXTT1=
EXTT2=
EXTT3=
EXTT4=
EXTT5=
EXTT6=
EXTT7=
EXTT8=
EXTT9=
PLAYORDER=
